<svg width="1098" height="472" viewBox="0 0 1098 472" fill="none" xmlns="http://www.w3.org/2000/svg">
<path d="M111.548 62.1895C111.933 62.1895 112.303 62.3412 112.575 62.611C112.847 62.8809 113 63.2474 113 63.629V78.7083C113 78.984 112.893 79.2491 112.701 79.4475C112.509 79.6461 112.247 79.7629 111.971 79.7723C108.424 79.9013 105.033 79.9622 101.799 79.9541C89.6239 79.8977 62.81 79.8654 21.3582 79.8573C19.3023 79.8574 18.2781 80.7235 18.2861 82.4565C18.5522 185.228 18.4961 286.965 18.1172 387.665C18.1092 389.357 18.3431 390.369 18.8188 390.7C19.5606 391.224 20.6009 391.481 21.9393 391.473C31.9056 391.433 61.7347 391.442 111.427 391.498C111.796 391.498 112.15 391.643 112.411 391.902C112.671 392.16 112.818 392.511 112.818 392.876V407.895C112.818 408.238 112.682 408.568 112.439 408.81C112.196 409.053 111.867 409.189 111.524 409.189H1.15986C0.887429 409.189 0.626143 409.08 0.433471 408.885C0.240675 408.69 0.132285 408.425 0.132285 408.149L0.0118112 165.339L0.0366147 164.432V159.292L0.0484259 158.385V156.874L0.0602371 155.967L0 111.079L0.277563 63.4353C0.277563 63.105 0.408905 62.7879 0.642529 62.5544C0.876145 62.3208 1.19328 62.1895 1.52364 62.1895H111.548Z" fill="white"/>
<path d="M986.452 409C986.067 409 985.697 408.848 985.425 408.578C985.153 408.309 985 407.942 985 407.56L985 392.481C985 392.205 985.107 391.94 985.299 391.742C985.491 391.543 985.753 391.427 986.029 391.417C989.576 391.288 992.967 391.227 996.201 391.235C1008.38 391.292 1035.19 391.324 1076.64 391.332C1078.7 391.332 1079.72 390.466 1079.71 388.733C1079.45 285.961 1079.5 184.225 1079.88 83.5248C1079.89 81.8321 1079.66 80.8203 1079.18 80.4898C1078.44 79.9659 1077.4 79.7082 1076.06 79.7163C1066.09 79.7566 1036.27 79.7479 986.573 79.6915C986.204 79.6915 985.85 79.5461 985.589 79.2876C985.329 79.0291 985.182 78.6789 985.182 78.3133L985.182 63.2943C985.182 62.9511 985.318 62.6217 985.561 62.3791C985.804 62.1365 986.133 62 986.476 62L1096.84 62C1097.11 62.0001 1097.37 62.1098 1097.57 62.3047C1097.76 62.4997 1097.87 62.7646 1097.87 63.0404L1097.99 305.851L1097.96 306.758L1097.96 311.897L1097.95 312.804L1097.95 314.316L1097.94 315.223L1098 360.111L1097.72 407.754C1097.72 408.084 1097.59 408.402 1097.36 408.635C1097.12 408.869 1096.81 409 1096.48 409L986.452 409Z" fill="white"/>
<path d="M471.904 326.217C488.856 326.217 502.598 312.475 502.598 295.524C502.598 278.572 488.856 264.83 471.904 264.83C454.953 264.83 441.211 278.572 441.211 295.524C441.211 312.475 454.953 326.217 471.904 326.217Z" fill="#E65322"/>
<path d="M593.371 325.996C610.252 325.996 623.937 312.311 623.937 295.43C623.937 278.548 610.252 264.863 593.371 264.863C576.49 264.863 562.805 278.548 562.805 295.43C562.805 312.311 576.49 325.996 593.371 325.996Z" fill="#0E61CA"/>
<path d="M454.159 0.267579C456.959 -0.12125 459.783 -0.0864975 462.633 0.373047C471.902 1.87909 480.228 3.6821 487.069 9.03809C487.734 9.56135 489.724 10.9158 493.04 13.1006C494.215 13.8747 495.282 14.8094 496.211 15.8789C500.177 20.4323 503.193 24.6679 505.258 28.585C508.577 34.8529 512.12 42.9664 515.153 51.5889C520.166 65.8927 523.822 76.5524 526.12 83.5664C527.074 86.4935 528.853 89.2337 531.455 91.7861C531.823 92.1472 532.28 92.4068 532.78 92.5391C536.938 93.6279 540.162 93.2066 542.453 91.2764C555.074 80.6634 568.102 68.7143 581.536 55.4287C583.488 53.4982 590.208 47.3147 601.697 36.8789C606.947 32.1169 612.049 28.9241 618.37 26.9727C620.59 26.2798 622.276 26.2945 623.428 27.0156C625.995 28.6277 627.862 28.5215 631.68 29.2852C635.615 30.0806 640.568 30.4089 643.93 31.7559C651.45 34.7892 655.469 41.7152 658.545 48.7256C660.871 54.0285 663.774 61.4674 667.253 71.041C669.49 77.2134 671.898 83.2055 676.405 87.3311C676.835 87.7264 677.368 87.9947 677.943 88.1055C681.648 88.8125 684.558 88.6467 686.672 87.6074C689.843 86.0378 693.778 81.6467 696.514 78.0195C702.341 70.2915 707.145 64.1611 710.927 59.6289C712.762 57.4229 714.268 54.4317 716.029 52.3105C719.564 48.0399 725.012 43.3163 732.373 38.1406C733.653 37.2427 736.496 35.8496 740.9 33.9619C743.431 32.8732 746.68 32.6012 750.646 33.1455C750.484 33.393 750.392 33.5771 750.371 33.6973C747.458 34.2417 744.647 35.0833 741.939 36.2217C741.466 36.4197 741.087 36.7521 740.804 37.2188C740.778 37.2588 740.765 37.3058 740.766 37.3535C740.768 37.4015 740.785 37.448 740.814 37.4863C740.843 37.5245 740.883 37.5527 740.928 37.5674C740.974 37.582 741.023 37.5826 741.069 37.5684L752.47 34.4609C754.026 34.8356 755.447 34.7614 756.734 34.2383C759.322 34.2736 761.712 35.0832 763.904 36.667C763.515 36.971 763.272 37.3071 763.173 37.6748C763.06 38.0989 763.229 38.4279 763.681 38.6611C764.501 39.0852 765.371 39.12 766.29 38.7666L770.247 39.1914C771.753 39.9406 773.082 40.0644 774.234 39.5625C776.235 39.8453 778.145 40.6054 779.962 41.8428C780.257 42.0465 780.517 42.2972 780.735 42.585C783.38 46.1273 786.968 48.8353 791.501 50.709C796.91 52.9433 800.986 54.524 803.729 55.4502C806.593 56.4153 809.266 58.0161 811.27 59.1934C812.056 59.6495 812.917 59.9692 813.815 60.1377C822.837 61.8416 828.532 62.7995 830.901 63.0117C837.169 63.5844 842.876 62.4812 849.123 61.0176C850.671 60.65 853.344 60.4732 857.14 60.4873C865.148 60.5085 871.183 58.2497 878.385 57.2422C879.339 57.5955 880.007 57.4755 880.388 56.8818L885.671 55.1846C885.133 56.6058 886.699 56.6268 890.369 55.248H892.405C892.858 55.9692 893.593 56.0965 894.611 55.6299C895.99 55.0147 896.881 54.566 897.284 54.2832C897.517 54.0499 897.92 53.9299 898.493 53.9229L901.336 54.5586L892.002 60.0313C881.651 63.8281 871.586 68.1947 861.807 73.1299C861.66 73.2021 861.546 73.3305 861.493 73.4873C861.439 73.644 861.449 73.8167 861.52 73.9678L861.531 73.9893C861.6 74.1314 861.722 74.2416 861.87 74.2969C862.018 74.3521 862.182 74.3483 862.327 74.2861C867.46 72.0094 872.593 69.6796 877.726 67.2969C881.29 65.6318 885.564 64.4862 889.435 62.7363C887.873 64.921 885.762 66.3709 883.103 67.085C882.747 67.183 882.411 67.3521 882.117 67.583C880.473 68.951 878.692 69.4815 876.528 70.8496C875.552 71.4647 874.524 71.8466 873.442 71.9951L858.763 79.1221C856.586 79.6736 854.591 80.6462 852.781 82.0391L848.698 84.3936C848.574 84.4672 848.476 84.5781 848.417 84.7109C848.358 84.8437 848.341 84.9922 848.369 85.1357L848.433 85.4648C848.451 85.5543 848.49 85.6388 848.546 85.7109C848.601 85.7829 848.673 85.8409 848.755 85.8809C848.837 85.9208 848.927 85.9419 849.018 85.9414C849.11 85.9409 849.199 85.9188 849.281 85.8779L852.379 84.2764L860.322 80.4268C860.33 80.4231 860.336 80.4169 860.34 80.4092C860.343 80.4015 860.344 80.3928 860.342 80.3838C860.339 80.3747 860.334 80.3658 860.327 80.3584C860.32 80.351 860.31 80.345 860.301 80.3418C860.209 80.3206 860.117 80.2884 860.025 80.2461C860.605 79.6947 861.228 79.4473 861.892 79.5039C863.433 79.6452 864.54 79.147 865.212 78.0088L870.408 75.3359C873.173 73.9784 875.849 73.0589 878.437 72.5781C878.497 72.5594 878.56 72.5531 878.623 72.5586C878.685 72.5642 878.746 72.5814 878.802 72.6104C878.857 72.6394 878.907 72.6794 878.947 72.7275C878.987 72.7757 879.017 72.8317 879.036 72.8916C879.055 72.9514 879.062 73.0147 879.056 73.0771C879.051 73.1395 879.033 73.2003 879.004 73.2559C878.975 73.3114 878.936 73.3611 878.887 73.4014C878.839 73.4416 878.783 73.4714 878.723 73.4902C875.973 74.7629 873.774 76.0039 872.127 77.2129C869.199 79.3659 866.017 80.4271 862.91 82.8877C862.825 82.951 862.729 83.0074 862.624 83.0566L855.539 86.5889C847.846 89.8484 840.047 93.7341 832.142 98.2451C832.068 98.2871 832.004 98.3446 831.954 98.4141C831.904 98.4835 831.87 98.5631 831.854 98.6475C831.838 98.7319 831.841 98.8192 831.861 98.9033C831.881 98.9875 831.919 99.0672 831.972 99.1357L832.175 99.3691C832.261 99.4766 832.382 99.551 832.515 99.5781C832.649 99.6053 832.788 99.5836 832.906 99.5176L846.471 92.4004L855.899 87.9785C856.005 87.9291 856.119 87.8859 856.239 87.8506L865.402 85.168C865.535 85.1276 865.678 85.1326 865.808 85.1826C865.938 85.2326 866.048 85.3242 866.12 85.4434C866.192 85.5626 866.221 85.7027 866.205 85.8408C866.188 85.9791 866.126 86.1081 866.028 86.207C864.002 88.3175 861.022 88.5827 859.187 91.1387C859.096 91.2649 858.988 91.3694 858.869 91.4463L852.972 95.1055C852.202 95.1832 851.626 95.512 851.244 96.0918L850.83 96.1982C849.062 96.4457 847.464 97.2232 846.036 98.5313C845.4 98.8847 845.326 99.0862 845.813 99.1357L837.583 104.608C837.52 104.652 837.475 104.719 837.459 104.794C837.442 104.869 837.454 104.948 837.493 105.015C837.532 105.081 837.594 105.131 837.668 105.154C837.741 105.177 837.821 105.172 837.89 105.139L851.349 98.1279C851.653 98.1138 851.912 98.1459 852.124 98.2236C852.824 98.5347 853.407 98.499 853.874 98.1172C856.122 96.2718 858.134 94.8294 859.909 93.79L864.077 91.1494C864.239 91.4603 864.388 91.365 864.522 90.8633C864.699 90.6441 864.908 90.471 865.148 90.3438C865.671 90.4285 865.848 90.3009 865.678 89.9619L870.239 88.4658C870.45 88.3957 870.647 88.2916 870.822 88.1582C872.802 86.6664 874.523 85.6058 875.987 84.9766C880.279 83.1383 884.047 81.4165 887.293 79.8115C887.758 79.5791 888.253 79.4047 888.767 79.292L891.62 78.666C891.153 79.0054 890.995 79.3452 891.143 79.6846C891.187 79.7839 891.266 79.8627 891.363 79.9043C891.46 79.9459 891.568 79.9472 891.663 79.9072C892.554 79.5396 892.861 78.9772 892.586 78.2207C898.101 74.5865 904.142 71.6275 910.711 69.3438C911.298 69.1387 912.118 69.0361 913.172 69.0361C911.284 70.3301 909.65 71.6028 907.54 72.6104C904.818 73.9255 902.078 75.3184 899.32 76.7891C899.242 76.8319 899.183 76.9026 899.155 76.9873C899.127 77.0721 899.134 77.1645 899.172 77.2451L899.182 77.2666C899.228 77.3623 899.31 77.436 899.411 77.4717C899.512 77.5073 899.624 77.502 899.723 77.457C904.468 75.3713 909.191 73.2044 913.892 70.9561C915.123 70.3692 916.109 69.5522 916.851 68.5059L922.303 66.1729C922.756 66.6038 923.222 66.5929 923.703 66.1406C923.908 65.9426 924.014 65.7128 924.021 65.4512C925.393 64.4542 926.793 64.1007 928.221 64.3906C922.918 67.9684 917.427 71.0224 911.75 73.5537C910.725 73.0096 909.614 73.2183 908.42 74.1797C908.378 74.2123 908.347 74.2575 908.332 74.3086C908.317 74.3596 908.317 74.4145 908.335 74.4648C908.352 74.5152 908.386 74.5592 908.429 74.5898C908.473 74.6204 908.526 74.6365 908.579 74.6357L909.629 74.6465L902.035 78.7939C900.077 78.4122 899.6 78.6733 900.603 79.5781L897.443 81.2646C897.167 80.7556 896.754 81.0631 896.891 81.4873C896.828 81.5226 896.765 81.5584 896.701 81.5938L891.334 84.3301L888.566 86.3555C886.982 86.6949 885.571 87.3844 884.334 88.4238L878.904 91.7217C878.591 91.9121 878.366 92.2214 878.278 92.5811L878.13 93.1113C878.114 93.1696 878.116 93.2317 878.135 93.2891C878.153 93.3462 878.189 93.3963 878.236 93.4336C878.283 93.4708 878.341 93.4941 878.401 93.499C878.461 93.5039 878.522 93.491 878.575 93.4619L884.429 90.1738C886.643 89.7991 888.601 89.0463 890.305 87.915C890.772 87.6039 891.118 87.1506 891.344 86.5566L899.373 82.5059C899.557 81.8907 899.971 81.5793 900.614 81.5723C901.455 81.3885 902.265 80.9432 903.043 80.2363C904.103 80.0525 904.623 79.7694 904.602 79.3877C912.627 75.1383 920.719 70.9449 928.879 66.8086C929.557 66.4621 930.198 66.2854 930.799 66.2783C930.886 66.2759 930.971 66.3018 931.042 66.3516C931.113 66.4014 931.167 66.4733 931.195 66.5566C931.223 66.6398 931.224 66.7303 931.199 66.8154C931.174 66.9006 931.123 66.9762 931.053 67.0313C929.272 68.3782 927.447 69.9376 925.4 71.0088C921.879 72.8471 918.421 74.795 915.027 76.8525C913.903 77.5383 912.853 78.3554 911.878 79.3027C911.855 79.3195 911.841 79.3444 911.837 79.3721C911.833 79.3999 911.839 79.4287 911.856 79.4512C911.873 79.4736 911.899 79.4882 911.927 79.4922C911.954 79.4961 911.982 79.4893 912.005 79.4727C918.92 76.0576 926.163 73.0344 931.89 68.7285C932.271 68.4397 932.68 68.1971 933.11 68.0068C935.118 67.1089 937.01 65.9742 938.785 64.6025C939.146 64.2774 939.764 64.019 940.64 63.8281C940.619 64.0402 940.722 64.1253 940.948 64.083C941.287 64.0264 941.482 63.8533 941.532 63.5635C941.73 63.5212 941.744 63.6412 941.574 63.9238C941.461 64.1146 941.341 64.242 941.214 64.3057C938.732 65.4652 936.72 66.7024 935.178 68.0176C932.272 70.4993 929.525 71.1251 926.057 73.7871C922.826 76.283 917.428 79.5396 909.862 83.5557C905.058 86.1117 901.346 89.2407 896.51 91.9346C892.345 94.2466 888.947 96.233 886.317 97.8945C877.461 103.463 869.147 107.705 861.054 112.722C857.696 114.8 841.358 124.399 812.044 141.517C788.085 155.506 769.992 166.727 749.247 179.433C734.696 188.352 720.579 196.36 706.43 205.227C698.978 209.907 691.901 213.775 685.198 216.829C682.723 217.953 679.81 218.54 676.459 218.59C676.37 218.591 676.282 218.572 676.202 218.534C676.122 218.496 676.052 218.44 675.998 218.371C675.943 218.302 675.906 218.222 675.888 218.137C675.871 218.051 675.873 217.963 675.896 217.879L675.981 217.54C676.013 217.412 676.09 217.298 676.199 217.221C676.308 217.143 676.441 217.106 676.575 217.115C677.558 217.172 678.413 217.013 679.141 216.639C679.204 216.604 679.257 216.553 679.293 216.49C679.329 216.428 679.347 216.357 679.344 216.286C679.342 216.215 679.321 216.147 679.281 216.089C679.241 216.031 679.186 215.987 679.121 215.96C678.718 215.797 678.593 215.56 678.749 215.249C678.791 215.165 678.808 215.071 678.797 214.979C678.786 214.886 678.747 214.798 678.687 214.726C678.627 214.653 678.547 214.599 678.457 214.569C678.366 214.54 678.269 214.537 678.177 214.56C675.525 215.26 672.905 215.924 670.317 216.554C669.073 216.851 667.903 216.843 666.807 216.532C666.654 216.487 666.52 216.394 666.424 216.267C666.328 216.139 666.275 215.984 666.274 215.825C666.273 215.666 666.323 215.51 666.417 215.382C666.511 215.253 666.644 215.159 666.797 215.111L669.097 214.443C669.234 214.405 669.362 214.339 669.473 214.25C669.585 214.161 669.678 214.051 669.747 213.926C669.816 213.801 669.86 213.663 669.876 213.521C669.892 213.378 669.88 213.234 669.841 213.096L669.713 212.65C669.672 212.507 669.602 212.373 669.506 212.259C669.41 212.144 669.29 212.051 669.155 211.985C669.02 211.919 668.873 211.882 668.722 211.876C668.572 211.87 668.421 211.895 668.281 211.95C666.768 212.544 665.272 212.88 663.795 212.958C662.487 213.029 661.515 213.23 660.879 213.563C657.368 215.408 653.231 215.005 651.195 211.494C650.785 210.787 650.874 210.162 651.461 209.617C651.927 209.179 652.004 208.812 651.693 208.515C652.372 208.713 652.987 208.691 653.539 208.45C653.668 208.397 653.777 208.303 653.847 208.182C653.918 208.06 653.947 207.918 653.928 207.779C653.91 207.64 653.847 207.511 653.748 207.412C653.649 207.313 653.519 207.25 653.38 207.231C652.538 207.097 651.899 207.429 651.461 208.228C649.997 207.874 648.861 207.302 648.055 206.51C647.944 206.402 647.856 206.272 647.797 206.129C647.737 205.986 647.708 205.831 647.71 205.676C647.712 205.52 647.745 205.366 647.808 205.224C647.871 205.081 647.963 204.952 648.077 204.845L653.136 200.104C653.185 199.997 653.238 199.891 653.295 199.785C655.19 199.092 657.138 197.862 659.139 196.095C659.206 196.031 659.25 195.947 659.264 195.856C659.279 195.765 659.264 195.671 659.22 195.59C659.177 195.508 659.109 195.443 659.025 195.404C658.942 195.365 658.848 195.355 658.758 195.374C657.994 195.572 657.17 196.006 656.286 196.678C656.187 196.36 656.035 196.232 655.83 196.296C654.876 196.614 654.737 196.901 655.416 197.155L653.836 198.312C652.224 198.927 651.106 198.636 650.484 197.441C649.7 195.936 649.58 194.935 650.124 194.44C650.583 194.023 651.556 193.634 653.041 193.273C653.078 193.263 653.113 193.244 653.141 193.218C653.17 193.192 653.191 193.159 653.204 193.123C653.216 193.087 653.22 193.049 653.214 193.013C653.207 192.976 653.191 192.942 653.168 192.913L651.98 191.449C651.948 191.414 651.907 191.388 651.862 191.375C651.817 191.362 651.769 191.362 651.725 191.375L639.974 195.235C639.082 195.531 638.113 195.512 637.227 195.183C635.721 194.617 634.169 194.186 632.571 193.889C632.027 193.783 631.694 193.475 631.574 192.966C631.468 192.52 631.538 192.04 631.786 191.523C632.366 190.944 633.108 190.541 634.013 190.314C634.033 190.311 634.053 190.303 634.069 190.29C634.086 190.277 634.1 190.26 634.109 190.24L634.406 189.572C634.435 189.504 634.443 189.428 634.429 189.355C634.416 189.283 634.38 189.216 634.328 189.163C634.275 189.111 634.208 189.075 634.135 189.061C634.062 189.047 633.986 189.055 633.918 189.084L632.316 189.795C630.365 190.601 628.707 190.353 627.343 189.053C627.236 188.95 627.151 188.827 627.094 188.691C627.036 188.555 627.007 188.409 627.008 188.262C627.009 188.115 627.04 187.97 627.099 187.836C627.159 187.702 627.245 187.581 627.353 187.482L631.129 183.973C631.222 183.886 631.296 183.78 631.345 183.661C631.395 183.542 631.418 183.413 631.415 183.283C631.401 182.704 631.263 182.067 631.002 181.374C630.878 181.047 630.867 180.688 630.97 180.355C631.074 180.023 631.287 179.735 631.574 179.539C632.458 178.945 633.233 178.185 633.897 177.259C634.137 177.174 634.378 177.157 634.618 177.206C635.587 177.524 636.339 177.078 636.877 175.869L641.469 172.74C641.572 172.663 641.643 172.552 641.671 172.427C641.698 172.302 641.681 172.17 641.621 172.057C641.561 171.943 641.462 171.855 641.344 171.808C641.225 171.76 641.093 171.756 640.971 171.797C638.476 172.794 636.135 174.278 633.95 176.251C633.823 175.381 633.292 175.035 632.359 175.212C632.188 175.242 632.012 175.21 631.862 175.124C631.712 175.038 631.596 174.902 631.536 174.739C631.475 174.577 631.474 174.398 631.531 174.234C631.588 174.071 631.702 173.933 631.85 173.844C632.776 173.321 633.285 172.429 633.377 171.171C634.529 170.754 635.311 169.969 635.721 168.816C635.752 168.723 635.755 168.621 635.73 168.525C635.705 168.43 635.654 168.344 635.582 168.277C635.51 168.211 635.42 168.167 635.324 168.151C635.228 168.136 635.13 168.15 635.042 168.19C633.96 168.7 633.172 169.566 632.677 170.789C632.494 170.923 632.345 170.941 632.232 170.842C632.119 170.736 632.119 170.595 632.232 170.418C633.392 168.608 634.766 166.837 636.357 165.104L638.722 162.888C638.777 162.836 638.823 162.775 638.854 162.707C638.886 162.639 638.903 162.567 638.906 162.494C638.909 162.422 638.897 162.351 638.871 162.285C638.845 162.22 638.806 162.161 638.755 162.113L638.733 162.103C638.605 161.983 638.441 161.91 638.27 161.896C638.1 161.883 637.933 161.929 637.8 162.028L633.219 165.412C631.769 165.709 630.524 165.691 629.485 165.358L630.673 164.956C630.728 164.935 630.776 164.898 630.81 164.85C630.845 164.801 630.864 164.743 630.865 164.684C630.866 164.624 630.849 164.566 630.817 164.517C630.785 164.467 630.738 164.427 630.683 164.404C630.146 164.206 629.7 164.425 629.346 165.062C628.936 164.447 628.187 164.235 627.098 164.426C622.644 165.211 618.56 166.61 614.848 168.625C614.516 168.806 614.147 168.907 613.769 168.92C613.392 168.933 613.017 168.857 612.675 168.699C609.373 167.179 606.785 165.377 604.911 163.291C604.664 163.016 604.346 162.815 603.993 162.708C603.639 162.601 603.263 162.594 602.906 162.687C596.967 164.235 590.317 168.944 586.542 172.857C578.481 181.215 568.353 189.18 559.645 197.93C557.404 200.178 547.654 209.78 530.394 226.735C529.906 227.209 528.099 228.75 524.974 231.359C523.249 232.802 521.167 232.954 518.727 231.815C518.805 231.709 518.862 231.624 518.897 231.561C518.908 231.542 518.914 231.522 518.915 231.501C518.916 231.48 518.911 231.458 518.901 231.439C518.892 231.421 518.877 231.405 518.86 231.393C518.843 231.38 518.823 231.372 518.802 231.37C518.667 231.356 518.515 231.413 518.345 231.54L515.694 231.529C515.243 231.522 514.788 231.473 514.337 231.381C511.996 230.879 509.366 230.55 506.446 230.395C505.75 230.358 505.097 230.059 504.628 229.564C504.159 229.07 503.913 228.418 503.943 227.753C503.964 227.414 503.921 227 503.815 226.513C503.76 226.287 503.625 226.087 503.433 225.95L498.301 222.387C498.174 222.295 498.034 222.22 497.886 222.164L488.723 218.441C487.888 218.106 487.199 217.482 486.782 216.681C485.347 213.937 484.318 210.462 483.696 206.255C483.505 204.94 483.568 203.82 483.886 202.894C484.343 201.589 483.229 200.061 483.463 198.354C483.752 196.155 483 193.765 481.204 191.185C481.066 190.991 480.874 190.843 480.652 190.76L477.842 189.773C477.35 189.599 476.94 189.247 476.695 188.788C476.45 188.329 476.386 187.795 476.515 187.292L478.594 179.21C478.711 178.744 478.663 178.252 478.457 177.82L474.691 169.951C474.082 168.671 473.033 167.649 471.732 167.066L466.292 164.627C465.596 164.321 464.837 164.197 464.086 164.267L453.098 165.358C452.287 165.443 451.491 165.607 450.722 165.847C449.004 166.37 446.207 168.445 442.333 172.072C439.208 174.985 435.641 177.524 431.632 179.688C425.024 183.262 420.284 187.632 414.482 193.094C412.255 195.187 410.201 196.763 408.32 197.823C399.782 202.638 393.238 210.074 387.224 218.007C383.046 223.532 376.916 230.151 370.022 234.637C368.757 235.464 366.158 237.539 362.226 240.862C359.624 243.061 357.309 245.419 355.28 247.937C351.773 252.271 346.7 258.125 340.06 265.5C338.667 267.041 336.543 268.816 333.686 270.824C333.447 270.993 333.232 271.193 333.05 271.418L318.435 289.657L318.436 289.658C315.636 293.137 311.861 296.934 309.878 300.243C307.403 304.379 305.476 307.448 304.097 309.449C300.725 314.328 298.413 323.439 295.061 328.147C294.765 328.568 294.605 329.068 294.605 329.579V338.297C294.605 338.459 294.623 338.616 294.658 338.764L296.854 347.313C294.951 347.246 293.048 347.214 291.146 347.216C293.047 347.214 294.948 347.246 296.85 347.313C302.026 360.782 312.251 369.585 324.787 376.299L317.532 381.177C317.483 381.21 317.444 381.256 317.419 381.31C317.393 381.363 317.382 381.422 317.386 381.48C317.391 381.539 317.41 381.597 317.443 381.646C317.476 381.694 317.521 381.735 317.574 381.761C317.687 381.817 317.769 381.881 317.818 381.951C317.844 381.991 317.855 382.039 317.85 382.087C317.846 382.134 317.825 382.179 317.792 382.213C317.759 382.247 317.716 382.269 317.669 382.275C317.622 382.282 317.574 382.272 317.533 382.248L317.534 382.249C317.575 382.273 317.623 382.283 317.67 382.276C317.717 382.27 317.761 382.248 317.794 382.214C317.827 382.18 317.848 382.134 317.852 382.087C317.857 382.04 317.846 381.992 317.82 381.952C317.771 381.881 317.689 381.818 317.576 381.762C317.523 381.736 317.478 381.695 317.445 381.646C317.412 381.597 317.393 381.54 317.388 381.481C317.384 381.423 317.395 381.364 317.421 381.311C317.446 381.257 317.485 381.211 317.534 381.178L324.788 376.299C326.962 377.359 329.423 378.834 331.438 379.565C340.474 382.821 347.273 385.908 356.299 388.655C373.091 393.781 387.858 397.447 400.599 399.653C404.446 400.325 413.673 401.733 428.281 403.875C435.1 404.883 441.082 406.505 447.244 407.354C455.142 408.428 465.306 409.065 477.736 409.263C496.837 409.56 519.226 410.408 539.261 410.302C553.768 410.224 561.9 410.157 563.654 410.101C587.432 409.365 610.077 408.294 631.586 406.887C651.302 405.603 675.228 402.697 697.044 400.725L697.043 400.724C728.924 397.598 755.138 394.049 775.685 390.075C780.649 389.114 791.014 387.12 806.781 384.094C815.987 382.333 822.669 381.591 830.168 379.947C839.872 377.805 852.514 375.62 863.714 373.244C863.346 374.46 862.565 375.581 861.37 376.606C861.244 376.715 861.155 376.86 861.117 377.022C861.079 377.184 861.093 377.355 861.158 377.508C861.441 378.194 862.032 378.448 862.929 378.271C856.007 379.975 849.159 381.987 842.386 384.306C836.584 386.289 831.016 387.435 825.395 389.45C823.741 390.037 821.467 390.702 818.575 391.444C806.654 394.506 798.463 396.673 794.002 397.945C786.875 399.992 780.84 400.628 774.084 402.188C764.539 404.393 754.314 406.218 744.462 408.477L744.464 408.478C711.14 414.587 677.731 420.046 644.238 424.854C641.106 425.306 638.812 425.532 637.355 425.532C622.306 425.532 609.748 426.752 590.477 428.629C573.052 430.326 550.142 434.6 536.609 435.258C517.2 436.191 504.64 436.862 498.927 437.272C498.184 437.329 491.042 438.079 477.503 439.521C466.119 440.738 452.409 441.069 436.373 440.518C416.915 439.853 397.824 438.708 379.101 437.082C359.799 435.396 340.4 431.301 321.49 427.239C318.117 426.511 314.38 425.437 310.279 424.016C304.319 421.951 300.6 420.777 299.122 420.494C291.705 419.087 286.756 417.888 284.274 416.898C277.593 414.226 268.722 409.832 257.664 403.716L246.347 391.848C246.303 391.8 246.248 391.763 246.186 391.742C246.125 391.721 246.059 391.716 245.995 391.727C245.931 391.737 245.871 391.763 245.819 391.803C245.768 391.842 245.726 391.894 245.7 391.953L245.499 392.409C245.464 392.486 245.449 392.571 245.459 392.653C245.468 392.736 245.5 392.813 245.552 392.876L251.958 401.213C247.581 398.964 243.682 396.136 240.26 392.728C237.191 389.659 234.331 386.633 231.679 383.649C231.276 381.988 230.481 380.407 229.293 378.908C234.441 378.702 239.509 378.607 244.508 378.595C239.509 378.606 234.439 378.701 229.291 378.907C226.611 375.117 224.504 371.059 222.969 366.731C222.885 366.492 222.775 366.264 222.641 366.053L218.77 359.764C218.723 359.687 218.65 359.629 218.565 359.601C218.48 359.572 218.387 359.574 218.303 359.607C218.22 359.64 218.151 359.701 218.108 359.78C218.065 359.859 218.052 359.952 218.07 360.04C218.911 364.318 220.396 368.411 222.524 372.321C222.157 372.427 221.761 372.707 221.337 373.159L218.155 368.45C217.93 368.12 217.758 367.755 217.645 367.368L214.082 355.107C214.079 355.093 214.072 355.079 214.06 355.069C214.049 355.06 214.034 355.054 214.018 355.055H213.669C213.647 355.054 213.626 355.059 213.606 355.067C213.587 355.076 213.57 355.089 213.555 355.105C213.541 355.122 213.53 355.141 213.524 355.161C213.518 355.182 213.517 355.203 213.52 355.225C213.98 359.007 215.012 362.561 216.617 365.884C216.772 366.194 216.885 366.522 216.956 366.859C217.705 370.225 218.89 373.378 220.51 376.319C220.333 377.387 220.728 377.985 221.697 378.112C221.195 378.812 220.594 378.953 219.894 378.536C219.811 378.487 219.74 378.414 219.692 378.324L212.916 366.34C212.895 364.438 212.325 362.542 211.208 360.654C211.033 360.353 210.921 360.021 210.879 359.679C210.667 357.855 210.069 356.087 209.087 354.376L207.941 348.277C208.323 347.288 208.348 346.075 208.015 344.64C208.016 344.639 208.017 344.638 208.017 344.637C207.346 338.882 207.57 333.152 208.687 327.447C209.189 324.845 209.659 322.229 210.097 319.599C210.741 315.773 213.357 308.01 217.946 296.309L222.57 291.238C222.174 291.875 221.923 292.508 221.817 293.137C221.804 293.214 221.815 293.295 221.849 293.365C221.884 293.435 221.94 293.493 222.01 293.529C222.079 293.566 222.159 293.58 222.237 293.568C222.315 293.557 222.387 293.521 222.443 293.466C223.503 292.441 224.16 291.091 224.415 289.417L224.414 289.416C223.77 289.352 223.155 289.961 222.568 291.24L217.944 296.31C219.004 294.761 219.524 293.255 219.503 291.792C219.503 291.734 219.488 291.676 219.459 291.626C219.429 291.576 219.385 291.535 219.334 291.508C219.282 291.481 219.225 291.468 219.167 291.472C219.109 291.475 219.053 291.493 219.005 291.526C218.283 291.993 217.622 292.747 217.021 293.786C214.313 297.307 212.506 301.287 211.601 305.728C210.237 308.556 209.448 311.508 209.236 314.584C209.024 314.542 208.855 314.743 208.727 315.188C208.676 315.373 208.564 315.536 208.411 315.651C208.258 315.766 208.07 315.828 207.879 315.825C207.596 315.825 207.394 315.91 207.274 316.079C207.214 316.168 207.127 316.236 207.025 316.271C206.924 316.307 206.814 316.309 206.712 316.277C206.609 316.245 206.52 316.18 206.457 316.093C206.394 316.006 206.36 315.9 206.362 315.793C206.383 312.979 206.938 309.058 208.027 304.031C209.045 299.354 211.527 293.383 212.969 287.963C213.443 288.748 213.79 288.313 214.01 286.658L215.695 282.776L223.926 268.946C223.943 268.915 223.954 268.88 223.957 268.844C223.959 268.808 223.954 268.771 223.94 268.738C223.927 268.705 223.906 268.676 223.88 268.653C223.853 268.631 223.822 268.615 223.788 268.607L223.098 268.438C223.024 268.416 222.945 268.418 222.873 268.442C222.801 268.467 222.738 268.513 222.695 268.575L213.892 281.176C209.806 286.726 206.68 292.806 204.516 299.417C204.5 299.467 204.468 299.51 204.426 299.54C204.383 299.57 204.332 299.586 204.28 299.585C204.228 299.584 204.177 299.566 204.136 299.534C204.094 299.502 204.065 299.457 204.051 299.407C203.619 297.703 203.608 296.133 204.018 294.698C205.454 289.685 207.472 283.993 210.074 277.622C210.746 275.982 211.58 274.419 212.577 272.935C215.631 268.385 218.305 262.212 221.964 257.45C225.771 252.497 228.879 247.396 232.771 242.4C237.622 236.178 242.924 229.259 248.679 221.645C250.238 219.576 252.773 217.02 254.46 214.358L255.468 213.859C256.436 213.414 256.829 212.94 256.645 212.438L264.451 203.381C264.462 203.368 264.471 203.353 264.476 203.337C264.482 203.32 264.483 203.302 264.481 203.284C264.479 203.266 264.473 203.249 264.465 203.232C264.456 203.216 264.444 203.202 264.429 203.19C264.402 203.167 264.367 203.155 264.332 203.157C264.296 203.159 264.263 203.175 264.239 203.201L256.327 210.699C254.474 212.276 252.774 213.209 251.225 213.499C251.046 213.533 250.86 213.51 250.694 213.434C250.528 213.357 250.39 213.231 250.299 213.072C250.208 212.914 250.169 212.731 250.186 212.549C250.204 212.367 250.278 212.195 250.398 212.057L256.168 205.428L264.907 193.867C264.907 193.865 264.906 193.862 264.904 193.86C264.902 193.858 264.899 193.856 264.896 193.856H264.886C264.879 193.856 264.872 193.859 264.865 193.862C264.858 193.866 264.85 193.871 264.844 193.878L257.483 201.026L254.195 203.646C254.158 203.673 254.13 203.711 254.115 203.754C254.1 203.797 254.098 203.845 254.111 203.889C254.124 203.933 254.15 203.972 254.186 204.001C254.222 204.029 254.266 204.046 254.311 204.049L254.693 204.092L253.739 205.142L253.379 204.792C253.343 204.759 253.295 204.74 253.247 204.738C253.198 204.737 253.151 204.754 253.114 204.785C253.077 204.816 253.051 204.859 253.043 204.907C253.035 204.955 253.045 205.005 253.071 205.046L253.421 205.587L252.943 206.266C252.455 206.202 251.95 206.474 251.427 207.082C249.532 209.281 248.355 210.717 247.895 211.389C247.825 211.487 247.739 211.58 247.64 211.664L242.921 215.504C241.399 216.744 240.035 218.168 238.859 219.746L237.194 221.983C236.905 222.378 236.57 222.734 236.197 223.044L231.604 226.777C231.527 226.84 231.463 226.916 231.414 227C229.689 229.977 227.578 232.222 225.082 233.735C222.77 235.135 221.793 236.535 220.256 238.593C220.2 238.661 220.124 238.71 220.038 238.729C219.952 238.749 219.861 238.739 219.781 238.701C219.701 238.663 219.637 238.599 219.598 238.52C219.559 238.44 219.548 238.35 219.566 238.264C219.736 237.613 220.171 236.779 220.871 235.761C221.061 235.487 221.294 235.244 221.56 235.04C224.332 232.834 226.295 230.419 227.447 227.796C227.88 226.819 228.529 225.955 229.345 225.271C230.936 223.935 232.432 222.213 233.832 220.106C236.006 216.851 238.138 215.503 240.354 212.958C240.587 212.69 240.793 212.399 240.969 212.089C242.433 209.452 244.123 207.369 246.039 205.842C246.229 205.687 246.403 205.513 246.558 205.322C252.307 197.983 256.009 194.377 263.624 185.224C269.068 178.676 272.589 174.49 274.187 172.666C275.666 170.982 286.823 158.156 307.659 134.188C311.71 129.529 315.953 125.198 320.386 121.196C322.494 119.294 328.39 113.216 338.077 102.964C340.537 100.355 342.694 98.1707 344.547 96.4102C348.884 92.2739 352.724 89.399 356.627 84.7324C358.854 82.0599 360.537 80.1686 361.676 79.0586C361.857 78.8773 361.994 78.656 362.078 78.4121C362.085 78.405 362.1 78.3372 362.121 78.21C362.126 78.1862 362.135 78.1632 362.149 78.1436C362.163 78.1239 362.182 78.1077 362.203 78.0957C362.224 78.0837 362.247 78.0765 362.271 78.0742C362.295 78.072 362.321 78.0749 362.344 78.083C362.393 78.0973 362.464 78.1716 362.555 78.3057C362.577 78.3401 362.607 78.3687 362.642 78.3887C362.678 78.4087 362.719 78.4199 362.761 78.4209C362.802 78.4219 362.843 78.4127 362.882 78.3945C362.92 78.3764 362.953 78.3496 362.979 78.3164L363.341 77.8604L363.732 77.584C364.121 77.7961 364.379 77.5241 364.507 76.7676C364.782 76.6969 364.938 76.5274 364.973 76.2588L373.394 68.166C373.442 68.1208 373.481 68.0661 373.507 68.0049C373.532 67.9437 373.545 67.8769 373.544 67.8096C373.543 67.7425 373.528 67.6757 373.501 67.6133C373.473 67.5506 373.433 67.4932 373.384 67.4453L373.374 67.4346C373.278 67.3425 373.149 67.291 373.015 67.291C372.881 67.2911 372.751 67.3426 372.652 67.4346L366.427 73.0557L362.916 74.7422C362.651 74.8675 362.421 75.0606 362.248 75.3037C361.215 76.7673 359.614 77.7078 357.443 78.125C357.379 78.1362 357.314 78.1284 357.255 78.1025C357.195 78.0767 357.145 78.0338 357.11 77.9795C357.075 77.9252 357.057 77.8615 357.057 77.7969C357.058 77.7324 357.079 77.6695 357.115 77.6162C358.006 76.3507 359.144 75.2259 360.53 74.2432C360.773 74.0696 360.966 73.8396 361.092 73.5752L362.248 71.0938L371.019 62.9697C371.049 62.9438 371.071 62.9108 371.086 62.874C371.1 62.837 371.105 62.796 371.101 62.7559C371.097 62.7159 371.084 62.6772 371.062 62.6426C371.041 62.6078 371.011 62.5777 370.976 62.5557L370.658 62.376C370.65 62.3693 370.638 62.3662 370.627 62.3682C370.615 62.3702 370.603 62.3763 370.594 62.3857L359.989 71.5176C359.883 71.5529 359.769 71.5777 359.649 71.5918C359.571 71.6044 359.499 71.6407 359.44 71.6953C359.382 71.75 359.34 71.8208 359.32 71.8994C359.299 72.0055 359.268 72.0943 359.225 72.165C353.732 75.3468 350.624 80.2252 345.469 83.8418C342.447 85.9629 340.93 88.8588 337.505 90.0361C337.463 90.0508 337.418 90.0514 337.376 90.0381C337.334 90.0247 337.297 89.997 337.272 89.9609C337.247 89.9249 337.234 89.8819 337.236 89.8379C337.238 89.7939 337.254 89.7518 337.282 89.7178C340.435 85.6593 342.086 83.4632 342.234 83.1309C342.489 82.5474 344.875 80.8937 345.586 79.7803C347.877 76.1212 351.133 73.8407 353.912 70.8711C364.751 59.3107 376.301 48.6942 388.688 37.5898C397.569 29.6213 408.649 21.2456 421.927 12.4639C432.067 5.76106 442.874 1.82663 454.159 0.267579ZM738.947 406.231C734.826 405.317 730.677 406.014 724.904 406.812C718.724 407.66 714.584 408.18 712.484 408.371C712.022 408.413 711.577 408.438 711.148 408.446H711.151C711.58 408.438 712.025 408.414 712.487 408.371C714.587 408.18 718.727 407.661 724.907 406.813C730.679 406.015 734.827 405.318 738.947 406.231ZM706.448 407.736C706.738 407.839 707.035 407.93 707.341 408.012C707.035 407.93 706.738 407.839 706.448 407.736ZM739.721 406.423C740.171 406.545 740.621 406.687 741.074 406.852C740.621 406.687 740.171 406.545 739.721 406.423ZM337.335 392.696C340.124 393.704 342.543 394.531 345.523 394.87C345.84 394.905 346.15 394.98 346.446 395.093C359.251 400.042 370.419 403.691 379.95 406.038C381.597 406.441 383.534 406.682 385.761 406.76C385.845 406.763 385.928 406.734 385.992 406.681C386.056 406.627 386.098 406.551 386.11 406.468C386.122 406.385 386.102 406.301 386.055 406.231C386.009 406.162 385.938 406.111 385.857 406.091L371.836 402.485C371.116 402.302 370.42 402.05 369.758 401.732C363.543 398.816 354.782 395.39 347.125 393.799C346.79 393.722 346.44 393.73 346.106 393.82C344.657 394.216 343.101 394.184 341.439 393.725C340.018 393.322 338.3 392.696 337.335 392.696ZM322.065 383.218C321.638 383.176 321.4 383.208 321.363 383.312C321.29 383.521 322.045 384.012 323.463 384.675C324.881 385.338 326.845 386.12 328.924 386.848C329.953 387.208 330.979 387.545 331.944 387.838C332.909 388.131 333.793 388.375 334.547 388.557C335.3 388.738 335.908 388.854 336.336 388.896C336.762 388.937 337.001 388.905 337.038 388.802C337.111 388.592 336.356 388.101 334.938 387.438C333.52 386.775 331.556 385.994 329.477 385.266C328.448 384.905 327.422 384.569 326.457 384.275C325.492 383.982 324.608 383.738 323.854 383.557C323.101 383.375 322.493 383.26 322.065 383.218ZM285.13 356.308C285.07 356.313 285.012 356.336 284.966 356.373C284.919 356.411 284.884 356.462 284.866 356.519C284.739 356.971 284.784 357.509 285.004 358.131C286.298 361.758 287.111 363.907 287.443 364.579C288.101 365.887 289.642 367.655 292.067 369.882C296.981 374.393 301.379 377.836 305.261 380.212C305.318 380.246 305.363 380.298 305.386 380.36C305.41 380.422 305.412 380.491 305.392 380.555C305.373 380.618 305.333 380.673 305.278 380.711C305.224 380.749 305.158 380.768 305.092 380.764C296.341 380.415 287.474 379.929 278.427 379.506C287.475 379.93 296.342 380.416 305.094 380.765C305.16 380.768 305.225 380.75 305.28 380.712C305.335 380.674 305.375 380.619 305.394 380.556C305.414 380.492 305.411 380.423 305.387 380.361C305.364 380.299 305.32 380.247 305.262 380.213C301.381 377.837 296.983 374.394 292.069 369.883C289.644 367.656 288.103 365.888 287.445 364.58C287.113 363.908 286.3 361.758 285.006 358.131C284.787 357.509 284.741 356.972 284.868 356.52C284.886 356.463 284.921 356.412 284.968 356.374C285.014 356.337 285.071 356.313 285.131 356.308H285.13ZM253.043 378.65C255.14 378.682 257.225 378.727 259.3 378.78C257.225 378.727 255.14 378.682 253.043 378.65ZM285.139 356.308C285.196 356.304 285.252 356.316 285.302 356.342L285.219 356.312C285.193 356.306 285.166 356.306 285.139 356.308ZM278.612 347.726C278.518 347.733 278.418 347.736 278.312 347.737C278.416 347.736 278.515 347.734 278.608 347.727C278.872 347.705 279.136 347.685 279.399 347.665C279.137 347.685 278.874 347.705 278.612 347.726ZM217.496 340.354C218.184 340.351 218.891 340.398 219.618 340.493C224.27 341.101 229.786 341.932 236.164 342.985C241.637 343.897 252.094 343.092 259.719 343.93C264.513 344.453 267.278 344.841 268.013 345.096C272.107 346.534 275.132 347.384 277.088 347.648C275.132 347.384 272.108 346.533 268.016 345.096C267.281 344.841 264.516 344.452 259.722 343.929C252.097 343.091 241.639 343.896 236.167 342.984C229.789 341.931 224.274 341.1 219.622 340.492C218.894 340.397 218.185 340.351 217.496 340.354ZM214.246 340.761C214.276 340.753 214.306 340.745 214.337 340.737L214.34 340.736C214.308 340.744 214.277 340.753 214.246 340.761ZM270.125 285.608C267.403 289.101 265.416 292.181 264.165 294.847C260.934 301.762 258.703 306.167 257.472 308.062C257.282 308.35 257.133 308.664 257.027 308.995L254.81 315.804C254.79 315.865 254.756 315.92 254.713 315.968C254.757 315.92 254.792 315.864 254.812 315.802L257.029 308.993C257.135 308.662 257.284 308.348 257.474 308.06C258.705 306.165 260.936 301.76 264.167 294.845C265.418 292.179 267.405 289.099 270.127 285.606L270.125 285.608ZM243.391 298.154C242.031 299.422 241.216 300.659 240.948 301.867C239.979 306.293 238.374 310.586 236.133 314.743C236.101 314.801 236.061 314.854 236.016 314.901C236.062 314.853 236.103 314.8 236.135 314.741C238.376 310.584 239.981 306.292 240.95 301.866C241.218 300.659 242.032 299.422 243.391 298.154ZM292.504 268.724C290.58 271.481 289.471 273.143 289.174 273.709C286.13 279.415 283.743 285.301 280.19 291.007C277.383 295.518 274.717 300.546 272.193 306.089C272.179 306.119 272.159 306.146 272.136 306.17C272.159 306.146 272.18 306.118 272.195 306.087C274.719 300.544 277.385 295.516 280.192 291.005C283.745 285.299 286.132 279.413 289.176 273.707C289.473 273.141 290.583 271.48 292.506 268.723C292.529 268.689 292.556 268.657 292.585 268.629C292.555 268.658 292.528 268.689 292.504 268.724ZM248.747 289.351C248.69 289.417 248.639 289.488 248.594 289.564L244.151 297.254C244.028 297.47 243.88 297.67 243.71 297.85C243.88 297.669 244.029 297.469 244.153 297.252L248.596 289.563C248.618 289.524 248.643 289.488 248.668 289.452L248.747 289.351ZM218.451 283.218C218.278 283.093 217.995 283.133 217.667 283.329C217.338 283.526 216.989 283.863 216.697 284.267C216.405 284.67 216.194 285.106 216.11 285.479C216.026 285.853 216.076 286.134 216.249 286.26C216.422 286.385 216.704 286.345 217.033 286.148C217.362 285.952 217.711 285.615 218.003 285.212C218.295 284.809 218.506 284.372 218.59 283.998C218.674 283.624 218.624 283.343 218.451 283.218ZM303.241 272.65C302.977 272.82 302.757 273.052 302.6 273.327L297.043 282.936C297.009 282.994 296.967 283.047 296.921 283.095C296.968 283.047 297.011 282.994 297.045 282.935L302.602 273.325C302.759 273.05 302.979 272.819 303.243 272.649L303.241 272.65ZM228.831 270.937C228.692 270.856 228.236 271.329 227.562 272.253C226.889 273.177 226.053 274.476 225.239 275.863C224.425 277.251 223.699 278.615 223.221 279.653C222.744 280.692 222.552 281.321 222.69 281.402C222.829 281.483 223.285 281.009 223.959 280.085C224.632 279.161 225.468 277.863 226.282 276.476C227.096 275.088 227.822 273.724 228.3 272.686C228.777 271.648 228.969 271.018 228.831 270.937ZM292.678 268.552C292.657 268.566 292.638 268.584 292.619 268.601C292.639 268.583 292.659 268.566 292.68 268.551L292.678 268.552ZM526.171 226.588C526.091 226.479 525.696 226.605 525.074 226.939C524.451 227.274 523.651 227.788 522.85 228.37C522.049 228.952 521.313 229.554 520.802 230.043C520.292 230.532 520.05 230.867 520.13 230.977C520.209 231.086 520.604 230.959 521.226 230.625C521.849 230.291 522.648 229.776 523.449 229.194C524.25 228.612 524.987 228.01 525.497 227.521C526.007 227.033 526.249 226.697 526.171 226.588ZM681.554 214.148C681.473 214.153 681.388 214.168 681.305 214.191C681.138 214.239 680.986 214.319 680.886 214.416C680.785 214.513 680.743 214.618 680.768 214.707C680.781 214.751 680.809 214.79 680.852 214.822C680.896 214.854 680.953 214.878 681.02 214.893C681.088 214.907 681.165 214.912 681.247 214.907C681.328 214.902 681.413 214.888 681.496 214.864C681.664 214.817 681.815 214.736 681.916 214.64C682.017 214.543 682.058 214.438 682.033 214.349C682.02 214.305 681.992 214.265 681.949 214.233C681.906 214.202 681.848 214.178 681.781 214.163C681.713 214.148 681.636 214.144 681.554 214.148ZM683.469 213.499C683.384 213.52 683.324 213.602 683.289 213.743C683.289 213.748 683.29 213.753 683.292 213.758C683.294 213.763 683.297 213.767 683.302 213.771C683.306 213.773 683.31 213.776 683.315 213.776C683.32 213.777 683.326 213.776 683.331 213.774C683.486 213.683 683.564 213.633 683.564 213.626C683.573 213.611 683.579 213.594 683.578 213.577C683.577 213.56 683.572 213.543 683.561 213.529C683.551 213.515 683.536 213.505 683.519 213.5C683.503 213.495 683.485 213.494 683.469 213.499ZM654.166 190.698C654 190.667 653.794 190.685 653.593 190.748C653.493 190.779 653.397 190.82 653.311 190.869C653.226 190.918 653.151 190.975 653.093 191.034C653.034 191.094 652.992 191.156 652.969 191.217C652.947 191.278 652.944 191.337 652.961 191.391C652.994 191.498 653.106 191.575 653.272 191.606C653.438 191.638 653.645 191.621 653.846 191.558C653.946 191.526 654.041 191.485 654.127 191.436C654.212 191.386 654.287 191.33 654.345 191.271C654.404 191.211 654.447 191.149 654.469 191.088C654.492 191.027 654.495 190.967 654.478 190.914C654.444 190.807 654.332 190.73 654.166 190.698ZM823.676 104.707C823.619 104.716 823.565 104.736 823.516 104.766L814.5 110.27C814.451 110.299 814.408 110.338 814.375 110.384C814.341 110.43 814.317 110.483 814.303 110.538C814.29 110.594 814.288 110.652 814.297 110.708C814.305 110.764 814.326 110.819 814.355 110.867L814.378 110.903C814.407 110.952 814.446 110.995 814.492 111.028C814.538 111.062 814.591 111.086 814.646 111.1C814.702 111.113 814.76 111.115 814.816 111.106C814.872 111.098 814.927 111.078 814.975 111.048L823.991 105.544C824.04 105.514 824.082 105.475 824.116 105.429C824.15 105.383 824.174 105.331 824.187 105.275C824.201 105.22 824.203 105.162 824.194 105.105C824.185 105.049 824.166 104.995 824.136 104.946L824.114 104.91C824.084 104.861 824.045 104.819 823.999 104.785C823.953 104.752 823.901 104.727 823.845 104.714C823.79 104.7 823.732 104.698 823.676 104.707ZM882.809 96.0391C882.731 96.0512 882.655 96.0789 882.588 96.1201L865.841 106.303C865.704 106.386 865.605 106.52 865.567 106.676C865.529 106.831 865.555 106.996 865.638 107.133L865.671 107.188C865.712 107.255 865.767 107.314 865.831 107.361C865.895 107.408 865.968 107.442 866.045 107.461C866.122 107.48 866.202 107.483 866.28 107.471C866.358 107.459 866.434 107.432 866.502 107.391L883.249 97.208C883.386 97.1247 883.484 96.9897 883.522 96.834C883.56 96.6784 883.535 96.5138 883.452 96.377L883.419 96.3232C883.377 96.2554 883.323 96.1963 883.259 96.1494C883.194 96.1025 883.122 96.0686 883.045 96.0498C882.968 96.0311 882.888 96.0269 882.809 96.0391ZM871.471 89.7578C871.433 89.7212 871.34 89.743 871.216 89.8184C871.09 89.8939 870.943 90.0174 870.804 90.1611C870.666 90.305 870.548 90.458 870.477 90.5859C870.407 90.7138 870.389 90.8067 870.427 90.8438C870.466 90.8804 870.559 90.8586 870.683 90.7832C870.808 90.7076 870.956 90.5842 871.094 90.4404C871.233 90.2966 871.351 90.1436 871.422 90.0156C871.492 89.8879 871.51 89.7948 871.471 89.7578ZM362.042 74.0186C362.003 74.0271 361.956 74.0448 361.911 74.0703C361.866 74.0958 361.824 74.1276 361.792 74.1592C361.617 74.3622 361.528 74.4678 361.526 74.4766C361.523 74.4878 361.525 74.4997 361.528 74.5107C361.532 74.5218 361.538 74.5324 361.547 74.54C361.555 74.5476 361.567 74.5527 361.578 74.5547C361.589 74.5566 361.6 74.5548 361.611 74.5508C361.788 74.4589 361.962 74.3032 362.132 74.084C362.145 74.0568 362.143 74.0354 362.127 74.0234C362.11 74.0114 362.081 74.0101 362.042 74.0186ZM912.578 72.2178C912.549 72.2392 912.529 72.2695 912.521 72.3037C912.513 72.338 912.517 72.3745 912.533 72.4072C912.549 72.4398 912.575 72.4669 912.608 72.4844C912.641 72.5019 912.679 72.5088 912.716 72.5039C913.047 72.4474 913.234 72.384 913.277 72.3135C913.304 72.2666 913.319 72.2126 913.319 72.1582C913.319 72.1039 913.304 72.0508 913.277 72.0049C913.25 71.959 913.211 71.9216 913.164 71.8975C913.117 71.8734 913.065 71.8635 913.012 71.8682C913.005 71.8682 912.861 71.9846 912.578 72.2178ZM889.203 57.9688C889.181 57.9253 889.08 57.9207 888.905 57.9561C888.73 57.9915 888.483 58.0665 888.18 58.1758C887.878 58.2851 887.524 58.4273 887.14 58.5938C886.756 58.7603 886.349 58.9481 885.942 59.1465C885.121 59.5472 884.35 59.9666 883.8 60.3125C883.249 60.6584 882.964 60.9027 883.008 60.9912C883.029 61.0348 883.13 61.0393 883.305 61.0039C883.481 60.9684 883.727 60.8934 884.029 60.7842C884.332 60.6749 884.686 60.5328 885.07 60.3662C885.454 60.1997 885.862 60.0119 886.268 59.8135C887.09 59.4128 887.861 58.9933 888.411 58.6475C888.961 58.3015 889.246 58.0572 889.203 57.9688ZM622.996 28.3389C622.926 28.3168 622.85 28.3211 622.782 28.3516C621.956 28.6763 621.507 28.8992 621.435 29.0195C621.406 29.0685 621.391 29.1255 621.392 29.1826C621.394 29.2397 621.413 29.2948 621.445 29.3418C621.478 29.3888 621.523 29.4254 621.576 29.4473C621.629 29.4691 621.687 29.476 621.743 29.4658C622.344 29.3385 622.796 29.1434 623.1 28.8818C623.157 28.832 623.194 28.7635 623.206 28.6885C623.218 28.6133 623.202 28.5368 623.164 28.4727C623.125 28.4085 623.066 28.361 622.996 28.3389Z" fill="url(#paint0_radial_488_6611)"/>
<defs>
<radialGradient id="paint0_radial_488_6611" cx="0" cy="0" r="1" gradientUnits="userSpaceOnUse" gradientTransform="translate(827 45.5) rotate(134.628) scale(652.673 1092.74)">
<stop stop-color="white"/>
<stop offset="1" stop-color="#C7C5C5"/>
</radialGradient>
</defs>
</svg>
